<svg width="739" height="739" viewBox="0 0 739 739" fill="none" xmlns="http://www.w3.org/2000/svg">
<path d="M413.503 336.145H401.463C398.384 336.145 396.182 336.761 394.874 337.993C393.581 339.224 392.872 341.518 392.749 344.859C391.518 366.09 390.902 383.372 390.902 396.713L391.641 438.374L388.685 439.698L378.493 433.385L379.232 416.542C380.094 399.63 380.525 387.283 380.525 379.5C380.525 376.036 380.279 365.29 379.786 347.261L379.416 336.145H352.751C349.672 336.145 347.47 336.761 346.161 337.993C344.868 339.224 344.16 341.518 344.037 344.859C342.805 366.09 342.189 383.372 342.189 396.713L342.928 438.374L339.972 439.698L329.78 433.385C330.519 418.444 330.827 411.831 330.704 413.556L331.813 384.673C329.596 386.52 327.178 387.983 324.576 389.045C321.99 390.092 319.588 390.616 317.371 390.616C313.799 390.616 309.473 389.438 304.408 387.075C305.763 390.3 306.44 393.818 306.44 397.636C306.44 405.542 303.746 411.908 298.373 416.727C293.015 421.531 286.133 423.932 277.742 423.932C267.866 423.932 259.437 420.484 252.462 413.586C245.48 406.674 239.776 397.221 235.342 385.227L235.527 384.488L240.7 381.902L242.178 382.641C249.83 403.009 259.899 413.186 272.385 413.186C278.789 413.186 284.147 411.092 288.458 406.905C292.784 402.701 294.955 397.513 294.955 391.355C294.955 386.659 293.692 382.641 291.168 379.315C288.643 375.974 285.825 374.296 282.731 374.296C280.76 374.296 276.249 375.482 269.213 377.837C268.351 378.33 267.181 378.761 265.703 379.13L259.606 369.862L260.16 368.569C269.167 366.337 276.11 362.996 280.975 358.562C285.856 354.112 288.304 349.417 288.304 344.49C288.304 338.932 284.963 336.145 278.297 336.145C274.355 336.145 270.368 337.208 266.349 339.317C262.347 341.411 257.004 345.106 250.338 350.402H248.675L240.885 340.579C251 331.45 260.999 326.877 270.876 326.877C275.818 326.877 280.452 327.847 284.763 329.771C289.089 331.681 292.584 334.498 295.232 338.208C297.895 341.903 299.235 346.276 299.235 351.326C299.235 358.616 296.017 364.674 289.597 369.493C297.742 376.783 305.031 380.424 311.459 380.424C315.77 380.424 319.742 378.915 323.376 375.897C327.024 372.864 329.719 368.438 331.443 362.626L330.704 336.145H312.383C311.028 334.051 309.858 331.334 308.873 327.986L309.796 326.692H409.993L410.916 327.616L414.057 334.667L413.503 336.145Z" fill="white"/>
<path d="M514.405 336.145H502.366C499.286 336.145 497.1 336.761 495.807 337.993C494.514 339.224 493.805 341.518 493.682 344.859C492.451 366.09 491.835 383.372 491.835 396.713L492.574 438.374L489.587 439.698L479.426 433.385L480.165 416.542C481.027 399.63 481.458 387.283 481.458 379.5C481.458 376.036 481.212 365.29 480.719 347.261L480.35 336.145H455.901C452.675 336.268 450.328 337.084 448.85 338.578C447.372 340.056 446.571 342.519 446.448 345.968L445.524 381.347C445.278 391.347 444.662 398.76 443.677 403.579L439.581 405.242C429.459 401.039 421.614 393.995 416.056 384.119L417.75 378.946H434.963C434.716 364.127 433.916 349.863 432.561 336.145H410.144C408.79 334.051 407.62 331.334 406.634 327.986L407.558 326.692H510.895L511.819 327.616L514.959 334.667L514.405 336.145Z" fill="white"/>
<path d="M619.058 336.145H607.018C603.916 336.145 601.722 336.761 600.429 337.993C599.135 339.224 598.427 341.518 598.304 344.859C597.072 366.09 596.456 383.372 596.456 396.713L597.195 438.374L594.239 439.698L584.047 433.385L585.71 394.311C571.746 393.695 558.29 393.387 545.342 393.387L544.419 413.001L539.769 414.664C529.4 408.136 521.802 399.253 516.983 387.998L518.492 384.858C521.941 383.872 527.121 383.257 534.042 383.01V376.883C534.042 361.964 533.364 348.385 532.009 336.145H511.071C509.839 334.051 508.669 331.334 507.561 327.986L508.485 326.692H615.516L616.471 327.616L619.612 334.667L619.058 336.145ZM586.08 379.5C586.08 376.036 585.833 365.29 585.341 347.261L584.971 336.145H555.35C552.001 336.268 549.499 337.115 547.836 338.67C546.174 340.21 545.342 342.642 545.342 345.968L544.973 382.825C555.088 382.949 568.729 383.564 585.895 384.673L586.08 379.5Z" fill="white"/>
<mask id="mask0_86_97" style="mask-type:luminance" maskUnits="userSpaceOnUse" x="422" y="461" width="199" height="30">
<path d="M422.131 461.498H620.76V490.696H422.131V461.498Z" fill="white"/>
</mask>
<g mask="url(#mask0_86_97)">
<path d="M424.432 490.565C436.572 484.268 450.736 482.821 464.2 482.49C478.695 482.121 493.152 483.067 507.562 484.391C522.142 485.762 536.683 487.455 551.302 488.494C558.569 488.987 565.882 489.28 573.187 489.318C580.046 489.364 586.982 489.403 593.84 488.579C600.738 487.748 607.635 485.8 612.916 481.043C617.542 476.863 620.891 470.481 619.613 464.154C619.074 461.498 614.94 462.121 614.94 464.769C614.987 470.404 612.793 475.162 608.459 478.726C603.586 482.736 597.058 484.145 590.992 484.892C577.197 486.508 563.156 485.97 549.316 485.015C521.234 483.029 493.236 478.433 465.031 479.426C450.659 479.88 436.118 481.536 423.609 489.156C422.7 489.695 423.478 491.058 424.432 490.565Z" fill="#ED3F36"/>
</g>
<path d="M429.882 481.374C442.191 476.863 454.908 475.785 467.918 475.7C468.618 475.7 468.872 474.5 468.087 474.415C455.078 472.475 441.529 475.577 429.59 480.835C429.344 480.958 429.551 481.497 429.882 481.374Z" fill="#ED3F36"/>
<path d="M608.089 488.618C612.839 487.956 617.211 485.677 620.521 482.244C622.215 480.504 623.654 478.518 624.647 476.324C625.471 474.584 627.003 471.474 625.764 469.696C625.186 468.872 624.193 468.749 623.454 469.411C622.046 470.612 622.253 473.345 621.676 475.077C621.014 477.071 620.067 478.934 618.866 480.627C616.18 484.314 612.339 487.001 607.966 488.202C607.674 488.248 607.797 488.656 608.089 488.618Z" fill="#ED3F36"/>
<mask id="mask1_86_97" style="mask-type:luminance" maskUnits="userSpaceOnUse" x="250" y="291" width="145" height="3">
<path d="M364.027 291.659H394.133V293.629H364.027V291.659ZM250.275 291.659H356.991V293.629H250.275V291.659Z" fill="white"/>
</mask>
<g mask="url(#mask1_86_97)">
<path d="M250.829 291.836H392.578V293.314H250.829V291.836Z" fill="white"/>
</g>
<path d="M258.98 290.683C262.49 290.683 265.253 288.328 265.908 284.81H262.798C262.29 286.603 260.85 287.735 258.98 287.735C256.555 287.735 254.754 285.826 254.754 283.27C254.754 280.707 256.555 278.775 258.98 278.775C260.766 278.775 262.19 279.829 262.775 281.5H265.846C265.192 278.128 262.428 275.826 258.98 275.826C254.792 275.826 251.62 279.044 251.62 283.27C251.62 287.473 254.792 290.683 258.98 290.683Z" fill="white"/>
<path d="M277.92 276.134H266.92V278.998H270.884V290.36H273.956V278.998H277.92V276.134Z" fill="white"/>
<path d="M289.419 290.36H292.775L287.025 276.134H284.115L278.526 290.36H281.798L282.776 287.681H288.426L289.419 290.36ZM285.601 279.891L287.471 284.994H283.73L285.601 279.891Z" fill="white"/>
<path d="M297.652 287.512V284.586H302.586V281.807H297.652V278.982H303.118V276.134H294.581V290.36H303.341V287.512H297.652Z" fill="white"/>
<path d="M316.533 290.683C319.882 290.683 322.406 288.351 322.406 285.017V276.134H319.312V284.871C319.312 286.642 318.157 287.781 316.533 287.781C314.886 287.781 313.723 286.642 313.723 284.871V276.134H310.636V285.017C310.636 288.351 313.154 290.683 316.533 290.683Z" fill="white"/>
<path d="M333.356 275.441V279.998C332.501 279.406 331.485 279.082 330.354 279.082C327.02 279.082 324.58 281.561 324.58 284.894C324.58 288.204 327.02 290.706 330.354 290.706C331.693 290.706 332.871 290.237 333.787 289.467L334.133 290.383H336.327V275.441H333.356ZM330.592 287.904C328.868 287.904 327.605 286.603 327.605 284.894C327.605 283.162 328.868 281.884 330.592 281.884C332.324 281.884 333.579 283.162 333.579 284.894C333.579 286.603 332.324 287.904 330.592 287.904Z" fill="white"/>
<path d="M348.129 279.383L347.829 280.422C346.874 279.59 345.635 279.082 344.211 279.082C340.916 279.082 338.46 281.561 338.46 284.871C338.46 288.189 340.916 290.683 344.211 290.683C345.612 290.683 346.828 290.198 347.767 289.367L348.029 290.36H350.346V279.383H348.129ZM344.457 287.881C342.725 287.881 341.463 286.58 341.463 284.871C341.463 283.147 342.725 281.861 344.457 281.861C346.181 281.861 347.444 283.147 347.444 284.871C347.444 286.603 346.181 287.881 344.457 287.881Z" fill="white"/>
<path d="M353.214 277.92H356.163V275.18H353.214V277.92ZM353.214 290.36H356.178V279.383H353.214V290.36Z" fill="white"/>
<path d="M365 279.082C363.638 279.082 362.421 279.567 361.482 280.399L360.974 279.383H359.027V294.324H361.99V289.767C362.822 290.36 363.861 290.706 365 290.706C368.31 290.706 370.751 288.204 370.751 284.871C370.751 281.561 368.31 279.082 365 279.082ZM364.754 287.881C363.03 287.881 361.767 286.603 361.767 284.871C361.767 283.162 363.03 281.861 364.754 281.861C366.486 281.861 367.741 283.162 367.741 284.871C367.741 286.603 366.486 287.881 364.754 287.881Z" fill="white"/>
<path d="M377.883 290.683C380.993 290.683 383.048 288.697 383.048 285.726V279.383H380.077V285.402C380.077 286.942 379.268 287.881 377.883 287.881C376.52 287.881 375.689 286.965 375.689 285.402V279.383H372.725V285.726C372.725 288.697 374.796 290.683 377.883 290.683Z" fill="white"/>
<path d="M391.355 279.321C389.939 279.321 388.961 279.775 388.168 280.745L387.637 279.383H385.751V290.36H388.715V284.671C388.715 282.877 389.369 282.131 391.032 282.131H392.333V279.321H391.355Z" fill="white"/>
<mask id="mask2_86_97" style="mask-type:luminance" maskUnits="userSpaceOnUse" x="518" y="291" width="103" height="3">
<path d="M592.824 291.659H620.76V293.629H592.824V291.659ZM518.285 291.659H585.796V293.629H518.285V291.659Z" fill="white"/>
</mask>
<g mask="url(#mask2_86_97)">
<path d="M519.117 291.836H620.152V293.314H519.117V291.836Z" fill="white"/>
</g>
<path d="M519.809 276.842V279.406H521.903V290.36H524.766V276.842H519.809Z" fill="white"/>
<path d="M532.852 290.606C536.224 290.606 538.341 287.904 538.341 283.593C538.341 279.283 536.247 276.604 532.852 276.604C529.481 276.604 527.387 279.283 527.387 283.593C527.387 287.904 529.504 290.606 532.852 290.606ZM532.852 287.904C531.205 287.904 530.312 286.38 530.312 283.593C530.312 280.83 531.205 279.306 532.852 279.306C534.5 279.306 535.416 280.845 535.416 283.616C535.416 286.395 534.523 287.904 532.852 287.904Z" fill="white"/>
<path d="M540.556 286.095H547.184V283.224H540.556V286.095Z" fill="white"/>
<path d="M549.134 276.842V279.406H551.228V290.36H554.092V276.842H549.134Z" fill="white"/>
<path d="M562.747 281.846L565.534 277.397V276.842H556.912V279.444H561.547L559.091 283.509V284.063H561.062C562.301 284.063 563.117 284.794 563.117 285.926C563.117 287.088 562.339 287.904 561.262 287.904C560.23 287.904 559.537 287.188 559.499 286.111H556.589C556.674 288.774 558.583 290.606 561.262 290.606C564.01 290.606 566.042 288.674 566.042 286.034C566.042 283.917 564.741 282.316 562.747 281.846Z" fill="white"/>
<path d="M582.867 290.36H586.223L580.473 276.134H577.563L571.974 290.36H575.246L576.224 287.681H581.874L582.867 290.36ZM579.049 279.891L580.919 284.994H577.178L579.049 279.891Z" fill="white"/>
<path d="M593.802 279.082C592.439 279.082 591.223 279.567 590.284 280.399L589.776 279.383H587.828V294.324H590.792V289.767C591.623 290.36 592.663 290.706 593.802 290.706C597.112 290.706 599.552 288.204 599.552 284.871C599.552 281.561 597.112 279.082 593.802 279.082ZM593.556 287.881C591.831 287.881 590.569 286.603 590.569 284.871C590.569 283.162 591.831 281.861 593.556 281.861C595.288 281.861 596.542 283.162 596.542 284.871C596.542 286.603 595.288 287.881 593.556 287.881Z" fill="white"/>
<path d="M607.292 279.321C605.876 279.321 604.898 279.775 604.106 280.745L603.574 279.383H601.688V290.36H604.652V284.671C604.652 282.877 605.306 282.131 606.969 282.131H608.27V279.321H607.292Z" fill="white"/>
<path d="M609.96 277.92H612.908V275.18H609.96V277.92ZM609.96 290.36H612.923V279.383H609.96V290.36Z" fill="white"/>
<path d="M615.772 290.36H618.736V275.441H615.772V290.36Z" fill="white"/>
<path d="M285.514 474.135V476.29H283.327V488.73H280.802V483.064H278.493C278.531 483.311 278.555 483.549 278.555 483.773C278.555 484.943 278.185 485.882 277.446 486.575C276.707 487.275 275.722 487.622 274.49 487.622C273.605 487.622 272.812 487.452 272.119 487.098C271.442 486.752 270.903 486.267 270.518 485.651C270.148 485.02 269.964 484.296 269.964 483.496H272.335C272.335 484.05 272.519 484.512 272.889 484.881C273.258 485.235 273.736 485.405 274.336 485.405C274.906 485.405 275.368 485.243 275.722 484.912C276.068 484.566 276.245 484.111 276.245 483.557C276.245 483.003 276.06 482.541 275.691 482.172C275.321 481.802 274.775 481.617 274.059 481.617H273.197V479.554H274.059C274.675 479.554 275.152 479.393 275.506 479.062C275.876 478.738 276.06 478.338 276.06 477.861C276.06 477.353 275.883 476.929 275.537 476.598C275.206 476.275 274.798 476.106 274.305 476.106C273.766 476.106 273.32 476.275 272.951 476.598C272.596 476.906 272.427 477.306 272.427 477.799H270.087C270.087 477.045 270.256 476.375 270.61 475.798C270.98 475.205 271.48 474.751 272.119 474.443C272.75 474.135 273.482 473.981 274.305 473.981C275.514 473.981 276.492 474.304 277.231 474.935C277.97 475.574 278.339 476.437 278.339 477.522C278.339 478.246 278.139 478.869 277.754 479.4C277.361 479.939 276.83 480.309 276.153 480.509V480.54C276.476 480.624 276.807 480.77 277.138 480.971H280.802V474.135H285.514Z" fill="white"/>
<path d="M283.579 471.025C283.579 471.441 283.441 471.795 283.148 472.103C282.84 472.395 282.471 472.534 282.04 472.534C281.609 472.534 281.255 472.395 280.962 472.103C280.654 471.795 280.5 471.441 280.5 471.025C280.5 470.594 280.654 470.24 280.962 469.947C281.255 469.639 281.609 469.485 282.04 469.485C282.471 469.485 282.84 469.639 283.148 469.947C283.441 470.24 283.579 470.594 283.579 471.025Z" fill="white"/>
<path d="M299.376 476.29H297.189V488.73H294.634V481.186H292.016C291.046 481.186 290.277 481.425 289.707 481.894C289.153 482.372 288.876 483.049 288.876 483.927C288.876 484.789 289.122 485.466 289.615 485.959C290.107 486.452 290.831 486.698 291.801 486.698H292.201V488.699H291.401C289.876 488.699 288.645 488.291 287.706 487.468C286.759 486.652 286.289 485.451 286.289 483.865C286.289 482.248 286.797 481.032 287.829 480.232C288.876 479.416 290.23 479 291.893 479H294.634V476.29H284.719V474.135H299.376V476.29Z" fill="white"/>
<path d="M303.093 479.339C303.093 479.754 302.939 480.108 302.632 480.416C302.324 480.709 301.962 480.847 301.554 480.847C301.123 480.847 300.753 480.709 300.445 480.416C300.137 480.108 299.983 479.754 299.983 479.339C299.983 478.908 300.137 478.553 300.445 478.261C300.753 477.953 301.123 477.799 301.554 477.799C301.962 477.799 302.324 477.953 302.632 478.261C302.939 478.553 303.093 478.908 303.093 479.339ZM303.093 485.158C303.093 485.589 302.939 485.951 302.632 486.236C302.324 486.529 301.962 486.667 301.554 486.667C301.123 486.667 300.753 486.529 300.445 486.236C300.137 485.951 299.983 485.589 299.983 485.158C299.983 484.727 300.137 484.373 300.445 484.081C300.753 483.773 301.123 483.619 301.554 483.619C301.962 483.619 302.324 483.773 302.632 484.081C302.939 484.373 303.093 484.727 303.093 485.158Z" fill="white"/>
<path d="M320.972 474.135V476.29H318.785V488.73H316.26V483.064H313.951C313.99 483.311 314.013 483.549 314.013 483.773C314.013 484.943 313.643 485.882 312.904 486.575C312.165 487.275 311.18 487.622 309.948 487.622C309.063 487.622 308.27 487.452 307.577 487.098C306.9 486.752 306.361 486.267 305.976 485.651C305.606 485.02 305.422 484.296 305.422 483.496H307.793C307.793 484.05 307.977 484.512 308.347 484.881C308.716 485.235 309.194 485.405 309.794 485.405C310.364 485.405 310.826 485.243 311.18 484.912C311.526 484.566 311.703 484.111 311.703 483.557C311.703 483.003 311.518 482.541 311.149 482.172C310.779 481.802 310.233 481.617 309.517 481.617H308.655V479.554H309.517C310.133 479.554 310.61 479.393 310.964 479.062C311.334 478.738 311.518 478.338 311.518 477.861C311.518 477.353 311.341 476.929 310.995 476.598C310.664 476.275 310.256 476.106 309.763 476.106C309.224 476.106 308.778 476.275 308.409 476.598C308.054 476.906 307.885 477.306 307.885 477.799H305.545C305.545 477.045 305.714 476.375 306.068 475.798C306.438 475.205 306.938 474.751 307.577 474.443C308.208 474.135 308.94 473.981 309.763 473.981C310.972 473.981 311.95 474.304 312.689 474.935C313.428 475.574 313.797 476.437 313.797 477.522C313.797 478.246 313.597 478.869 313.212 479.4C312.819 479.939 312.288 480.309 311.611 480.509V480.54C311.934 480.624 312.265 480.77 312.596 480.971H316.26V474.135H320.972Z" fill="white"/>
<path d="M335.326 468.438C338.69 468.438 341.361 468.685 343.332 469.177C345.303 469.67 346.696 470.378 347.52 471.302C348.359 472.21 348.782 473.334 348.782 474.689V474.966H346.288V474.751C346.288 473.788 345.934 472.996 345.241 472.38C344.564 471.764 343.409 471.302 341.792 470.994C340.191 470.686 337.99 470.532 335.203 470.532C332.57 470.532 330.507 470.671 329.014 470.933C327.536 471.179 326.489 471.571 325.873 472.103C325.257 472.618 324.926 473.296 324.888 474.135H327.074V476.29H324.888V488.73H322.363V476.29H320.177V474.135H322.363C322.401 472.842 322.825 471.787 323.625 470.963C324.441 470.124 325.789 469.501 327.659 469.085C329.545 468.654 332.101 468.438 335.326 468.438Z" fill="white"/>
<path d="M351.205 476.29H349.05V488.73H346.494V481.186H343.877C342.891 481.186 342.106 481.425 341.536 481.894C340.982 482.372 340.705 483.049 340.705 483.927C340.705 484.789 340.951 485.466 341.444 485.959C341.952 486.452 342.691 486.698 343.661 486.698H344.03V488.699H343.261C341.737 488.699 340.497 488.291 339.535 487.468C338.588 486.652 338.118 485.451 338.118 483.865C338.118 483.372 338.18 482.903 338.303 482.449H330.575V484.727C330.575 485.343 330.705 485.836 330.975 486.205C331.26 486.559 331.668 486.729 332.206 486.729C332.715 486.729 333.115 486.567 333.407 486.236C333.715 485.89 333.869 485.451 333.869 484.912V484.666H336.302C336.317 484.773 336.333 484.897 336.333 485.035C336.333 486.228 335.963 487.175 335.224 487.868C334.5 488.568 333.515 488.915 332.268 488.915C330.913 488.915 329.866 488.515 329.127 487.714C328.404 486.913 328.05 485.882 328.05 484.604V480.632H329.651C330.698 480.632 331.452 480.386 331.929 479.893C332.422 479.385 332.668 478.677 332.668 477.768V476.29H326.264V474.135H351.205V476.29ZM346.494 476.29H335.193V477.768C335.193 478.777 334.962 479.647 334.516 480.386H339.504C339.997 479.916 340.597 479.57 341.321 479.339C342.06 479.115 342.868 479 343.753 479H346.494V476.29Z" fill="white"/>
<path d="M369.063 476.29H366.876V488.73H364.351V483.896L364.136 484.142L359.794 489.13H357.054L360.749 485.158C359.517 485.035 358.57 484.542 357.916 483.68C357.254 482.803 356.931 481.671 356.931 480.293V476.29H355.083V474.135H369.063V476.29ZM364.351 476.29H359.517V480.293C359.517 481.202 359.71 481.91 360.102 482.418C360.51 482.911 361.118 483.157 361.919 483.157C362.673 483.157 363.274 482.911 363.705 482.418C364.136 481.925 364.351 481.309 364.351 480.57V476.29Z" fill="white"/>
<path d="M370.428 488.73V476.29H368.242V474.135H375.139V476.29H372.953V488.73H370.428Z" fill="white"/>
<path d="M378.64 482.541V484.758C378.64 485.358 378.771 485.836 379.04 486.205C379.302 486.559 379.702 486.729 380.241 486.729C380.711 486.729 381.088 486.567 381.38 486.236C381.665 485.913 381.811 485.466 381.811 484.912V484.419H384.244C384.259 484.542 384.275 484.681 384.275 484.82C384.275 486.074 383.913 487.067 383.197 487.806C382.497 488.545 381.519 488.915 380.272 488.915C378.932 488.915 377.909 488.53 377.193 487.745C376.469 486.944 376.115 485.92 376.115 484.666V480.478H378.147C379.194 480.478 379.949 480.247 380.426 479.77C380.918 479.277 381.165 478.569 381.165 477.645V476.29H374.329V474.135H385.63V476.29H383.69V477.645C383.69 480.909 382.15 482.541 379.071 482.541H378.64Z" fill="white"/>
<path d="M383.927 471.025C383.927 471.441 383.789 471.795 383.496 472.103C383.188 472.395 382.819 472.534 382.388 472.534C381.957 472.534 381.602 472.395 381.31 472.103C381.002 471.795 380.848 471.441 380.848 471.025C380.848 470.594 381.002 470.24 381.31 469.947C381.602 469.639 381.957 469.485 382.388 469.485C382.819 469.485 383.188 469.639 383.496 469.947C383.789 470.24 383.927 470.594 383.927 471.025Z" fill="white"/>
<path d="M402.01 474.135V476.29H399.824V488.73H397.268V481.74H394.528V482.911C394.528 484.265 394.174 485.328 393.481 486.082C392.804 486.844 391.826 487.221 390.556 487.221C389.755 487.221 389.047 487.067 388.431 486.759C387.815 486.452 387.33 486.013 386.984 485.435C386.63 484.843 386.461 484.173 386.461 483.434C386.461 482.225 386.845 481.302 387.631 480.663C388.431 480.008 389.447 479.677 390.679 479.677H392.157V478.015C392.157 477.445 392.042 476.991 391.818 476.66C391.61 476.313 391.272 476.136 390.802 476.136C390.386 476.136 390.063 476.283 389.817 476.567C389.57 476.86 389.447 477.237 389.447 477.707C389.447 477.953 389.478 478.184 389.54 478.384H386.953C386.907 478.099 386.892 477.845 386.892 477.614C386.892 476.529 387.215 475.659 387.877 474.997C388.531 474.32 389.478 473.981 390.71 473.981C392.042 473.981 393.004 474.397 393.604 475.213C394.22 476.013 394.528 477.106 394.528 478.477V479.677H397.268V474.135H402.01ZM392.157 481.74H390.741C390.163 481.74 389.701 481.894 389.355 482.202C389.001 482.495 388.831 482.895 388.831 483.403C388.831 483.919 388.985 484.327 389.293 484.635C389.617 484.943 390.032 485.097 390.525 485.097C391.033 485.097 391.433 484.912 391.726 484.542C392.011 484.173 392.157 483.673 392.157 483.034V481.74Z" fill="white"/>
<path d="M405.725 479.339C405.725 479.754 405.571 480.108 405.263 480.416C404.955 480.709 404.593 480.847 404.185 480.847C403.754 480.847 403.385 480.709 403.077 480.416C402.769 480.108 402.615 479.754 402.615 479.339C402.615 478.908 402.769 478.553 403.077 478.261C403.385 477.953 403.754 477.799 404.185 477.799C404.593 477.799 404.955 477.953 405.263 478.261C405.571 478.553 405.725 478.908 405.725 479.339ZM405.725 485.158C405.725 485.589 405.571 485.951 405.263 486.236C404.955 486.529 404.593 486.667 404.185 486.667C403.754 486.667 403.385 486.529 403.077 486.236C402.769 485.951 402.615 485.589 402.615 485.158C402.615 484.727 402.769 484.373 403.077 484.081C403.385 483.773 403.754 483.619 404.185 483.619C404.593 483.619 404.955 483.773 405.263 484.081C405.571 484.373 405.725 484.727 405.725 485.158Z" fill="white"/>
<mask id="mask3_86_97" style="mask-type:luminance" maskUnits="userSpaceOnUse" x="50" y="252" width="114" height="248">
<path d="M50.0826 252.884H163.134V499.133H50.0826V252.884Z" fill="white"/>
</mask>
<g mask="url(#mask3_86_97)">
<mask id="mask4_86_97" style="mask-type:luminance" maskUnits="userSpaceOnUse" x="50" y="252" width="114" height="248">
<path d="M119.064 368.63C126.754 357.307 148.247 332.512 137.339 298.972C125.653 263.061 135.191 252.884 135.191 252.884C135.191 252.884 119.795 263.592 119.426 303.259C119.126 335.837 96.8632 339.694 90.0505 364.342C90.0505 364.342 79.666 349.339 86.8251 329.332C86.8251 329.332 61.2988 349.031 73.1151 389.161C83.4072 424.117 54.4092 412.57 58.1734 384.349C58.1734 384.349 21.693 465.247 103.637 495.038C118.086 500.288 148.077 502.02 163.135 490.842C84.4079 478.302 94.6231 404.618 119.064 368.63Z" fill="white"/>
</mask>
<g mask="url(#mask4_86_97)">
<mask id="mask5_86_97" style="mask-type:luminance" maskUnits="userSpaceOnUse" x="50" y="252" width="114" height="248">
<path d="M119.064 368.63C126.754 357.307 148.247 332.512 137.339 298.972C125.653 263.061 135.191 252.884 135.191 252.884C135.191 252.884 119.795 263.592 119.426 303.259C119.126 335.837 96.8632 339.694 90.0505 364.342C90.0505 364.342 79.666 349.339 86.8251 329.332C86.8251 329.332 61.2988 349.031 73.1151 389.161C83.4072 424.117 54.4092 412.57 58.1734 384.349C58.1734 384.349 21.693 465.247 103.637 495.038C118.086 500.288 148.077 502.02 163.135 490.842C84.4079 478.302 94.6231 404.618 119.064 368.63Z" fill="white"/>
</mask>
<g mask="url(#mask5_86_97)">
<path d="M50.0824 499.133H163.134V252.884H50.0824V499.133Z" fill="url(#paint0_radial_86_97)"/>
</g>
</g>
</g>
<mask id="mask6_86_97" style="mask-type:luminance" maskUnits="userSpaceOnUse" x="115" y="320" width="107" height="155">
<path d="M115.03 320.587H221.508V474.507H115.03V320.587Z" fill="white"/>
</mask>
<g mask="url(#mask6_86_97)">
<mask id="mask7_86_97" style="mask-type:luminance" maskUnits="userSpaceOnUse" x="115" y="320" width="107" height="155">
<path d="M176.028 418.282C176.028 418.282 190.616 383.272 168.646 349.693C171.356 373.541 160.263 385.065 160.263 385.065C168.646 348.292 148.978 320.587 148.978 320.587C148.978 320.587 153.458 339.517 125.515 386.135C125.438 386.274 125.33 386.397 125.253 386.535C104.892 423.878 120.58 456.633 142.003 469.442C160.155 480.304 185.481 471.867 190.616 455.224C194.973 441.106 188.784 430.198 194.85 408.067C201.893 382.402 221.515 374.35 221.515 374.35C221.515 374.35 196.305 373.003 176.028 418.282Z" fill="white"/>
</mask>
<g mask="url(#mask7_86_97)">
<mask id="mask8_86_97" style="mask-type:luminance" maskUnits="userSpaceOnUse" x="115" y="320" width="107" height="155">
<path d="M176.028 418.282C176.028 418.282 190.616 383.272 168.646 349.693C171.356 373.541 160.263 385.065 160.263 385.065C168.646 348.292 148.978 320.587 148.978 320.587C148.978 320.587 153.458 339.517 125.515 386.135C125.438 386.274 125.33 386.397 125.253 386.535C104.892 423.878 120.58 456.633 142.003 469.442C160.155 480.304 185.481 471.867 190.616 455.224C194.973 441.106 188.784 430.198 194.85 408.067C201.893 382.402 221.515 374.35 221.515 374.35C221.515 374.35 196.305 373.003 176.028 418.282Z" fill="white"/>
</mask>
<g mask="url(#mask8_86_97)">
<path d="M115.03 474.507H221.508V320.587H115.03V474.507Z" fill="url(#paint1_radial_86_97)"/>
</g>
</g>
</g>
<defs>
<radialGradient id="paint0_radial_86_97" cx="0" cy="0" r="1" gradientUnits="userSpaceOnUse" gradientTransform="translate(109.963 550.652) rotate(-90) scale(259.117 259.828)">
<stop stop-color="#F5B308"/>
<stop offset="0.00390625" stop-color="#F5B209"/>
<stop offset="0.0078125" stop-color="#F5B109"/>
<stop offset="0.0117188" stop-color="#F5B009"/>
<stop offset="0.015625" stop-color="#F5AF0A"/>
<stop offset="0.0195312" stop-color="#F5AD0A"/>
<stop offset="0.0234375" stop-color="#F5AC0B"/>
<stop offset="0.0273438" stop-color="#F5AC0B"/>
<stop offset="0.03125" stop-color="#F5AC0B"/>
<stop offset="0.0351562" stop-color="#F4AB0B"/>
<stop offset="0.0390625" stop-color="#F4AA0C"/>
<stop offset="0.0429688" stop-color="#F4A90C"/>
<stop offset="0.046875" stop-color="#F4A80C"/>
<stop offset="0.0507812" stop-color="#F4A70D"/>
<stop offset="0.0546875" stop-color="#F4A60D"/>
<stop offset="0.0585938" stop-color="#F4A60D"/>
<stop offset="0.0625" stop-color="#F4A40E"/>
<stop offset="0.0664062" stop-color="#F4A30E"/>
<stop offset="0.0703125" stop-color="#F4A20F"/>
<stop offset="0.0742188" stop-color="#F4A10F"/>
<stop offset="0.078125" stop-color="#F4A00F"/>
<stop offset="0.0820312" stop-color="#F4A010"/>
<stop offset="0.0859375" stop-color="#F49F10"/>
<stop offset="0.0898438" stop-color="#F49F11"/>
<stop offset="0.09375" stop-color="#F49E11"/>
<stop offset="0.0976562" stop-color="#F49D11"/>
<stop offset="0.101562" stop-color="#F49C12"/>
<stop offset="0.105469" stop-color="#F39A12"/>
<stop offset="0.109375" stop-color="#F39912"/>
<stop offset="0.113281" stop-color="#F39913"/>
<stop offset="0.117188" stop-color="#F39813"/>
<stop offset="0.121094" stop-color="#F39713"/>
<stop offset="0.125" stop-color="#F39613"/>
<stop offset="0.128906" stop-color="#F39514"/>
<stop offset="0.132812" stop-color="#F39414"/>
<stop offset="0.136719" stop-color="#F39314"/>
<stop offset="0.140625" stop-color="#F39315"/>
<stop offset="0.144531" stop-color="#F39215"/>
<stop offset="0.148438" stop-color="#F39215"/>
<stop offset="0.152344" stop-color="#F39116"/>
<stop offset="0.15625" stop-color="#F39016"/>
<stop offset="0.160156" stop-color="#F38F16"/>
<stop offset="0.164062" stop-color="#F38E17"/>
<stop offset="0.167969" stop-color="#F38D17"/>
<stop offset="0.171875" stop-color="#F38C17"/>
<stop offset="0.175781" stop-color="#F38B18"/>
<stop offset="0.179688" stop-color="#F38B18"/>
<stop offset="0.183594" stop-color="#F28A18"/>
<stop offset="0.1875" stop-color="#F28819"/>
<stop offset="0.191406" stop-color="#F2871A"/>
<stop offset="0.195312" stop-color="#F2861A"/>
<stop offset="0.199219" stop-color="#F2851A"/>
<stop offset="0.203125" stop-color="#F2851B"/>
<stop offset="0.207031" stop-color="#F2851B"/>
<stop offset="0.210938" stop-color="#F2841B"/>
<stop offset="0.214844" stop-color="#F2831C"/>
<stop offset="0.21875" stop-color="#F2821C"/>
<stop offset="0.222656" stop-color="#F2811C"/>
<stop offset="0.226562" stop-color="#F27F1D"/>
<stop offset="0.230469" stop-color="#F27E1D"/>
<stop offset="0.234375" stop-color="#F27E1D"/>
<stop offset="0.238281" stop-color="#F27D1E"/>
<stop offset="0.242188" stop-color="#F27C1E"/>
<stop offset="0.246094" stop-color="#F27B1E"/>
<stop offset="0.25" stop-color="#F27A1F"/>
<stop offset="0.253906" stop-color="#F27A1F"/>
<stop offset="0.257812" stop-color="#F1791F"/>
<stop offset="0.261719" stop-color="#F1781F"/>
<stop offset="0.269531" stop-color="#F17720"/>
<stop offset="0.273438" stop-color="#F17520"/>
<stop offset="0.277344" stop-color="#F17421"/>
<stop offset="0.28125" stop-color="#F17321"/>
<stop offset="0.285156" stop-color="#F17222"/>
<stop offset="0.289062" stop-color="#F17122"/>
<stop offset="0.292969" stop-color="#F17122"/>
<stop offset="0.296875" stop-color="#F17023"/>
<stop offset="0.300781" stop-color="#F17023"/>
<stop offset="0.304688" stop-color="#F16F23"/>
<stop offset="0.308594" stop-color="#F16E24"/>
<stop offset="0.3125" stop-color="#F16D24"/>
<stop offset="0.316406" stop-color="#F16C25"/>
<stop offset="0.320312" stop-color="#F16B25"/>
<stop offset="0.328125" stop-color="#F06A25"/>
<stop offset="0.332031" stop-color="#F06926"/>
<stop offset="0.335938" stop-color="#F06826"/>
<stop offset="0.339844" stop-color="#F06726"/>
<stop offset="0.34375" stop-color="#F06627"/>
<stop offset="0.347656" stop-color="#F06527"/>
<stop offset="0.351562" stop-color="#F06428"/>
<stop offset="0.355469" stop-color="#F06328"/>
<stop offset="0.359375" stop-color="#F06228"/>
<stop offset="0.363281" stop-color="#F06129"/>
<stop offset="0.367188" stop-color="#F06029"/>
<stop offset="0.371094" stop-color="#F05F2A"/>
<stop offset="0.375" stop-color="#F05F2A"/>
<stop offset="0.378906" stop-color="#F05E2A"/>
<stop offset="0.382812" stop-color="#F05D2B"/>
<stop offset="0.386719" stop-color="#F05D2B"/>
<stop offset="0.390625" stop-color="#F05C2B"/>
<stop offset="0.394531" stop-color="#F05B2C"/>
<stop offset="0.398438" stop-color="#F0592C"/>
<stop offset="0.402344" stop-color="#EF582C"/>
<stop offset="0.40625" stop-color="#EF572D"/>
<stop offset="0.414062" stop-color="#EF562D"/>
<stop offset="0.417969" stop-color="#EF552D"/>
<stop offset="0.421875" stop-color="#EF542E"/>
<stop offset="0.425781" stop-color="#EF532E"/>
<stop offset="0.429688" stop-color="#EF532E"/>
<stop offset="0.433594" stop-color="#EF522F"/>
<stop offset="0.4375" stop-color="#EF512F"/>
<stop offset="0.441406" stop-color="#EF502F"/>
<stop offset="0.445312" stop-color="#EF4F30"/>
<stop offset="0.449219" stop-color="#EF4E30"/>
<stop offset="0.453125" stop-color="#EF4D30"/>
<stop offset="0.457031" stop-color="#EF4D31"/>
<stop offset="0.460938" stop-color="#EF4C31"/>
<stop offset="0.464844" stop-color="#EF4B32"/>
<stop offset="0.46875" stop-color="#EF4A32"/>
<stop offset="0.472656" stop-color="#EF4932"/>
<stop offset="0.476562" stop-color="#EE4833"/>
<stop offset="0.480469" stop-color="#EE4733"/>
<stop offset="0.484375" stop-color="#EE4634"/>
<stop offset="0.488281" stop-color="#EE4634"/>
<stop offset="0.492188" stop-color="#EE4534"/>
<stop offset="0.496094" stop-color="#EE4435"/>
<stop offset="0.503906" stop-color="#EE4335"/>
<stop offset="0.507812" stop-color="#EE4236"/>
<stop offset="0.511719" stop-color="#EE4136"/>
<stop offset="0.515625" stop-color="#EE4036"/>
<stop offset="0.519531" stop-color="#ED3F36"/>
<stop offset="0.523438" stop-color="#ED3F36"/>
<stop offset="0.527344" stop-color="#EC3F36"/>
<stop offset="0.53125" stop-color="#EC3F36"/>
<stop offset="0.535156" stop-color="#EC3E36"/>
<stop offset="0.539062" stop-color="#EB3E36"/>
<stop offset="0.542969" stop-color="#EB3E35"/>
<stop offset="0.546875" stop-color="#EB3D35"/>
<stop offset="0.550781" stop-color="#EA3D35"/>
<stop offset="0.5625" stop-color="#E93C35"/>
<stop offset="0.566406" stop-color="#E93C35"/>
<stop offset="0.570312" stop-color="#E93C35"/>
<stop offset="0.574219" stop-color="#E83C35"/>
<stop offset="0.578125" stop-color="#E83B35"/>
<stop offset="0.589844" stop-color="#E73A35"/>
<stop offset="0.59375" stop-color="#E63A35"/>
<stop offset="0.597656" stop-color="#E63A34"/>
<stop offset="0.601562" stop-color="#E53A34"/>
<stop offset="0.605469" stop-color="#E53934"/>
<stop offset="0.609375" stop-color="#E43934"/>
<stop offset="0.613281" stop-color="#E43934"/>
<stop offset="0.617188" stop-color="#E33934"/>
<stop offset="0.621094" stop-color="#E33934"/>
<stop offset="0.625" stop-color="#E23834"/>
<stop offset="0.636719" stop-color="#E13734"/>
<stop offset="0.644531" stop-color="#E13734"/>
<stop offset="0.648438" stop-color="#E03633"/>
<stop offset="0.65625" stop-color="#DF3633"/>
<stop offset="0.664062" stop-color="#DF3533"/>
<stop offset="0.671875" stop-color="#DE3533"/>
<stop offset="0.679688" stop-color="#DD3433"/>
<stop offset="0.683594" stop-color="#DD3433"/>
<stop offset="0.6875" stop-color="#DC3333"/>
<stop offset="0.695312" stop-color="#DC3333"/>
<stop offset="0.703125" stop-color="#DB3232"/>
<stop offset="0.710938" stop-color="#DA3232"/>
<stop offset="0.71875" stop-color="#D93132"/>
<stop offset="0.722656" stop-color="#D93132"/>
<stop offset="0.726562" stop-color="#D83132"/>
<stop offset="0.734375" stop-color="#D83032"/>
<stop offset="0.742188" stop-color="#D73032"/>
<stop offset="0.75" stop-color="#D62F31"/>
<stop offset="0.757812" stop-color="#D52F31"/>
<stop offset="0.761719" stop-color="#D52E31"/>
<stop offset="0.765625" stop-color="#D52E31"/>
<stop offset="0.769531" stop-color="#D42E31"/>
<stop offset="0.773438" stop-color="#D42E31"/>
<stop offset="0.777344" stop-color="#D42D31"/>
<stop offset="0.78125" stop-color="#D32D31"/>
<stop offset="0.785156" stop-color="#D22C31"/>
<stop offset="0.796875" stop-color="#D22C31"/>
<stop offset="0.800781" stop-color="#D22C31"/>
<stop offset="0.804688" stop-color="#D12C31"/>
<stop offset="0.808594" stop-color="#D12B31"/>
<stop offset="0.8125" stop-color="#D02B30"/>
<stop offset="0.816406" stop-color="#D02B30"/>
<stop offset="0.824219" stop-color="#CF2A30"/>
<stop offset="0.832031" stop-color="#CE2A30"/>
<stop offset="0.839844" stop-color="#CE2930"/>
<stop offset="0.847656" stop-color="#CD2830"/>
<stop offset="0.851562" stop-color="#CC2830"/>
<stop offset="0.855469" stop-color="#CB272F"/>
<stop offset="0.863281" stop-color="#CA272F"/>
<stop offset="0.871094" stop-color="#CA272F"/>
<stop offset="0.878906" stop-color="#C9262F"/>
<stop offset="0.882812" stop-color="#C9262F"/>
<stop offset="0.894531" stop-color="#C8252F"/>
<stop offset="0.898438" stop-color="#C8252F"/>
<stop offset="0.902344" stop-color="#C7242F"/>
<stop offset="0.90625" stop-color="#C7242F"/>
<stop offset="0.910156" stop-color="#C6232E"/>
<stop offset="0.917969" stop-color="#C6232E"/>
<stop offset="0.925781" stop-color="#C5222E"/>
<stop offset="0.933594" stop-color="#C4222E"/>
<stop offset="0.941406" stop-color="#C4222E"/>
<stop offset="0.945312" stop-color="#C3212E"/>
<stop offset="0.949219" stop-color="#C3212E"/>
<stop offset="0.953125" stop-color="#C2212E"/>
<stop offset="0.957031" stop-color="#C2202E"/>
<stop offset="0.964844" stop-color="#C1202D"/>
<stop offset="0.972656" stop-color="#C1202D"/>
<stop offset="0.976562" stop-color="#C01F2D"/>
<stop offset="0.980469" stop-color="#C01F2D"/>
<stop offset="0.984375" stop-color="#BF1F2D"/>
<stop offset="0.988281" stop-color="#BE1F2D"/>
<stop offset="1" stop-color="#BE1E2D"/>
</radialGradient>
<radialGradient id="paint1_radial_86_97" cx="0" cy="0" r="1" gradientUnits="userSpaceOnUse" gradientTransform="translate(109.964 550.652) rotate(-90) scale(259.117 259.828)">
<stop stop-color="#F5B308"/>
<stop offset="0.00390625" stop-color="#F5B209"/>
<stop offset="0.0078125" stop-color="#F5B109"/>
<stop offset="0.0117188" stop-color="#F5B009"/>
<stop offset="0.015625" stop-color="#F5AF0A"/>
<stop offset="0.0195312" stop-color="#F5AD0A"/>
<stop offset="0.0234375" stop-color="#F5AC0B"/>
<stop offset="0.0273438" stop-color="#F5AC0B"/>
<stop offset="0.03125" stop-color="#F5AC0B"/>
<stop offset="0.0351562" stop-color="#F4AB0B"/>
<stop offset="0.0390625" stop-color="#F4AA0C"/>
<stop offset="0.0429688" stop-color="#F4A90C"/>
<stop offset="0.046875" stop-color="#F4A80C"/>
<stop offset="0.0507812" stop-color="#F4A70D"/>
<stop offset="0.0546875" stop-color="#F4A60D"/>
<stop offset="0.0585938" stop-color="#F4A60D"/>
<stop offset="0.0625" stop-color="#F4A40E"/>
<stop offset="0.0664062" stop-color="#F4A30E"/>
<stop offset="0.0703125" stop-color="#F4A20F"/>
<stop offset="0.0742188" stop-color="#F4A10F"/>
<stop offset="0.078125" stop-color="#F4A00F"/>
<stop offset="0.0820312" stop-color="#F4A010"/>
<stop offset="0.0859375" stop-color="#F49F10"/>
<stop offset="0.0898438" stop-color="#F49F11"/>
<stop offset="0.09375" stop-color="#F49E11"/>
<stop offset="0.0976562" stop-color="#F49D11"/>
<stop offset="0.101562" stop-color="#F49C12"/>
<stop offset="0.105469" stop-color="#F39A12"/>
<stop offset="0.109375" stop-color="#F39912"/>
<stop offset="0.113281" stop-color="#F39913"/>
<stop offset="0.117188" stop-color="#F39813"/>
<stop offset="0.121094" stop-color="#F39713"/>
<stop offset="0.125" stop-color="#F39613"/>
<stop offset="0.128906" stop-color="#F39514"/>
<stop offset="0.132812" stop-color="#F39414"/>
<stop offset="0.136719" stop-color="#F39314"/>
<stop offset="0.140625" stop-color="#F39315"/>
<stop offset="0.144531" stop-color="#F39215"/>
<stop offset="0.148438" stop-color="#F39215"/>
<stop offset="0.152344" stop-color="#F39116"/>
<stop offset="0.15625" stop-color="#F39016"/>
<stop offset="0.160156" stop-color="#F38F16"/>
<stop offset="0.164062" stop-color="#F38E17"/>
<stop offset="0.167969" stop-color="#F38D17"/>
<stop offset="0.171875" stop-color="#F38C17"/>
<stop offset="0.175781" stop-color="#F38B18"/>
<stop offset="0.179688" stop-color="#F38B18"/>
<stop offset="0.183594" stop-color="#F28A18"/>
<stop offset="0.1875" stop-color="#F28819"/>
<stop offset="0.191406" stop-color="#F2871A"/>
<stop offset="0.195312" stop-color="#F2861A"/>
<stop offset="0.199219" stop-color="#F2851A"/>
<stop offset="0.203125" stop-color="#F2851B"/>
<stop offset="0.207031" stop-color="#F2851B"/>
<stop offset="0.210938" stop-color="#F2841B"/>
<stop offset="0.214844" stop-color="#F2831C"/>
<stop offset="0.21875" stop-color="#F2821C"/>
<stop offset="0.222656" stop-color="#F2811C"/>
<stop offset="0.226562" stop-color="#F27F1D"/>
<stop offset="0.230469" stop-color="#F27E1D"/>
<stop offset="0.234375" stop-color="#F27E1D"/>
<stop offset="0.238281" stop-color="#F27D1E"/>
<stop offset="0.242188" stop-color="#F27C1E"/>
<stop offset="0.246094" stop-color="#F27B1E"/>
<stop offset="0.25" stop-color="#F27A1F"/>
<stop offset="0.253906" stop-color="#F27A1F"/>
<stop offset="0.257812" stop-color="#F1791F"/>
<stop offset="0.261719" stop-color="#F1781F"/>
<stop offset="0.269531" stop-color="#F17720"/>
<stop offset="0.273438" stop-color="#F17520"/>
<stop offset="0.277344" stop-color="#F17421"/>
<stop offset="0.28125" stop-color="#F17321"/>
<stop offset="0.285156" stop-color="#F17222"/>
<stop offset="0.289062" stop-color="#F17122"/>
<stop offset="0.292969" stop-color="#F17122"/>
<stop offset="0.296875" stop-color="#F17023"/>
<stop offset="0.300781" stop-color="#F17023"/>
<stop offset="0.304688" stop-color="#F16F23"/>
<stop offset="0.308594" stop-color="#F16E24"/>
<stop offset="0.3125" stop-color="#F16D24"/>
<stop offset="0.316406" stop-color="#F16C25"/>
<stop offset="0.320312" stop-color="#F16B25"/>
<stop offset="0.328125" stop-color="#F06A25"/>
<stop offset="0.332031" stop-color="#F06926"/>
<stop offset="0.335938" stop-color="#F06826"/>
<stop offset="0.339844" stop-color="#F06726"/>
<stop offset="0.34375" stop-color="#F06627"/>
<stop offset="0.347656" stop-color="#F06527"/>
<stop offset="0.351562" stop-color="#F06428"/>
<stop offset="0.355469" stop-color="#F06328"/>
<stop offset="0.359375" stop-color="#F06228"/>
<stop offset="0.363281" stop-color="#F06129"/>
<stop offset="0.367188" stop-color="#F06029"/>
<stop offset="0.371094" stop-color="#F05F2A"/>
<stop offset="0.375" stop-color="#F05F2A"/>
<stop offset="0.378906" stop-color="#F05E2A"/>
<stop offset="0.382812" stop-color="#F05D2B"/>
<stop offset="0.386719" stop-color="#F05D2B"/>
<stop offset="0.390625" stop-color="#F05C2B"/>
<stop offset="0.394531" stop-color="#F05B2C"/>
<stop offset="0.398438" stop-color="#F0592C"/>
<stop offset="0.402344" stop-color="#EF582C"/>
<stop offset="0.40625" stop-color="#EF572D"/>
<stop offset="0.414062" stop-color="#EF562D"/>
<stop offset="0.417969" stop-color="#EF552D"/>
<stop offset="0.421875" stop-color="#EF542E"/>
<stop offset="0.425781" stop-color="#EF532E"/>
<stop offset="0.429688" stop-color="#EF532E"/>
<stop offset="0.433594" stop-color="#EF522F"/>
<stop offset="0.4375" stop-color="#EF512F"/>
<stop offset="0.441406" stop-color="#EF502F"/>
<stop offset="0.445312" stop-color="#EF4F30"/>
<stop offset="0.449219" stop-color="#EF4E30"/>
<stop offset="0.453125" stop-color="#EF4D30"/>
<stop offset="0.457031" stop-color="#EF4D31"/>
<stop offset="0.460938" stop-color="#EF4C31"/>
<stop offset="0.464844" stop-color="#EF4B32"/>
<stop offset="0.46875" stop-color="#EF4A32"/>
<stop offset="0.472656" stop-color="#EF4932"/>
<stop offset="0.476562" stop-color="#EE4833"/>
<stop offset="0.480469" stop-color="#EE4733"/>
<stop offset="0.484375" stop-color="#EE4634"/>
<stop offset="0.488281" stop-color="#EE4634"/>
<stop offset="0.492188" stop-color="#EE4534"/>
<stop offset="0.496094" stop-color="#EE4435"/>
<stop offset="0.503906" stop-color="#EE4335"/>
<stop offset="0.507812" stop-color="#EE4236"/>
<stop offset="0.511719" stop-color="#EE4136"/>
<stop offset="0.515625" stop-color="#EE4036"/>
<stop offset="0.519531" stop-color="#ED3F36"/>
<stop offset="0.523438" stop-color="#ED3F36"/>
<stop offset="0.527344" stop-color="#EC3F36"/>
<stop offset="0.53125" stop-color="#EC3F36"/>
<stop offset="0.535156" stop-color="#EC3E36"/>
<stop offset="0.539062" stop-color="#EB3E36"/>
<stop offset="0.542969" stop-color="#EB3E35"/>
<stop offset="0.546875" stop-color="#EB3D35"/>
<stop offset="0.550781" stop-color="#EA3D35"/>
<stop offset="0.5625" stop-color="#E93C35"/>
<stop offset="0.566406" stop-color="#E93C35"/>
<stop offset="0.570312" stop-color="#E93C35"/>
<stop offset="0.574219" stop-color="#E83C35"/>
<stop offset="0.578125" stop-color="#E83B35"/>
<stop offset="0.589844" stop-color="#E73A35"/>
<stop offset="0.59375" stop-color="#E63A35"/>
<stop offset="0.597656" stop-color="#E63A34"/>
<stop offset="0.601562" stop-color="#E53A34"/>
<stop offset="0.605469" stop-color="#E53934"/>
<stop offset="0.609375" stop-color="#E43934"/>
<stop offset="0.613281" stop-color="#E43934"/>
<stop offset="0.617188" stop-color="#E33934"/>
<stop offset="0.621094" stop-color="#E33934"/>
<stop offset="0.625" stop-color="#E23834"/>
<stop offset="0.636719" stop-color="#E13734"/>
<stop offset="0.644531" stop-color="#E13734"/>
<stop offset="0.648438" stop-color="#E03633"/>
<stop offset="0.65625" stop-color="#DF3633"/>
<stop offset="0.664062" stop-color="#DF3533"/>
<stop offset="0.671875" stop-color="#DE3533"/>
<stop offset="0.679688" stop-color="#DD3433"/>
<stop offset="0.683594" stop-color="#DD3433"/>
<stop offset="0.6875" stop-color="#DC3333"/>
<stop offset="0.695312" stop-color="#DC3333"/>
<stop offset="0.703125" stop-color="#DB3232"/>
<stop offset="0.710938" stop-color="#DA3232"/>
<stop offset="0.71875" stop-color="#D93132"/>
<stop offset="0.722656" stop-color="#D93132"/>
<stop offset="0.726562" stop-color="#D83132"/>
<stop offset="0.734375" stop-color="#D83032"/>
<stop offset="0.742188" stop-color="#D73032"/>
<stop offset="0.75" stop-color="#D62F31"/>
<stop offset="0.757812" stop-color="#D52F31"/>
<stop offset="0.761719" stop-color="#D52E31"/>
<stop offset="0.765625" stop-color="#D52E31"/>
<stop offset="0.769531" stop-color="#D42E31"/>
<stop offset="0.773438" stop-color="#D42E31"/>
<stop offset="0.777344" stop-color="#D42D31"/>
<stop offset="0.78125" stop-color="#D32D31"/>
<stop offset="0.785156" stop-color="#D22C31"/>
<stop offset="0.796875" stop-color="#D22C31"/>
<stop offset="0.800781" stop-color="#D22C31"/>
<stop offset="0.804688" stop-color="#D12C31"/>
<stop offset="0.808594" stop-color="#D12B31"/>
<stop offset="0.8125" stop-color="#D02B30"/>
<stop offset="0.816406" stop-color="#D02B30"/>
<stop offset="0.824219" stop-color="#CF2A30"/>
<stop offset="0.832031" stop-color="#CE2A30"/>
<stop offset="0.839844" stop-color="#CE2930"/>
<stop offset="0.847656" stop-color="#CD2830"/>
<stop offset="0.851562" stop-color="#CC2830"/>
<stop offset="0.855469" stop-color="#CB272F"/>
<stop offset="0.863281" stop-color="#CA272F"/>
<stop offset="0.871094" stop-color="#CA272F"/>
<stop offset="0.878906" stop-color="#C9262F"/>
<stop offset="0.882812" stop-color="#C9262F"/>
<stop offset="0.894531" stop-color="#C8252F"/>
<stop offset="0.898438" stop-color="#C8252F"/>
<stop offset="0.902344" stop-color="#C7242F"/>
<stop offset="0.90625" stop-color="#C7242F"/>
<stop offset="0.910156" stop-color="#C6232E"/>
<stop offset="0.917969" stop-color="#C6232E"/>
<stop offset="0.925781" stop-color="#C5222E"/>
<stop offset="0.933594" stop-color="#C4222E"/>
<stop offset="0.941406" stop-color="#C4222E"/>
<stop offset="0.945312" stop-color="#C3212E"/>
<stop offset="0.949219" stop-color="#C3212E"/>
<stop offset="0.953125" stop-color="#C2212E"/>
<stop offset="0.957031" stop-color="#C2202E"/>
<stop offset="0.964844" stop-color="#C1202D"/>
<stop offset="0.972656" stop-color="#C1202D"/>
<stop offset="0.976562" stop-color="#C01F2D"/>
<stop offset="0.980469" stop-color="#C01F2D"/>
<stop offset="0.984375" stop-color="#BF1F2D"/>
<stop offset="0.988281" stop-color="#BE1F2D"/>
<stop offset="1" stop-color="#BE1E2D"/>
</radialGradient>
</defs>
</svg>
